<mxfile host="Electron" modified="2023-11-03T21:18:01.519Z" agent="Mozilla/5.0 (Windows NT 10.0; Win64; x64) AppleWebKit/537.36 (KHTML, like Gecko) draw.io/22.0.3 Chrome/114.0.5735.289 Electron/25.8.4 Safari/537.36" etag="q_gUhoZ3dv0WSvqXosOf" version="22.0.3" type="device">
  <diagram name="PÃ¡gina-1" id="gthfWTiLkAfk8ChaRsu7">
    <mxGraphModel dx="1571" dy="924" grid="1" gridSize="10" guides="1" tooltips="1" connect="1" arrows="1" fold="1" page="1" pageScale="1" pageWidth="827" pageHeight="1169" math="0" shadow="0">
      <root>
        <mxCell id="0" />
        <mxCell id="1" parent="0" />
        <mxCell id="IGvtpsk_iJ_lnP_Dxxib-3" value="&lt;font style=&quot;font-size: 15px;&quot;&gt;col_tiendas&lt;/font&gt;" style="shape=folder;fontStyle=1;tabWidth=160;tabHeight=30;tabPosition=left;html=1;boundedLbl=1;labelInHeader=1;container=1;collapsible=0;whiteSpace=wrap;fillColor=#ffcd28;strokeColor=#000000;gradientColor=#ffa500;" parent="1" vertex="1">
          <mxGeometry x="420" y="20" width="310" height="220" as="geometry" />
        </mxCell>
        <mxCell id="IGvtpsk_iJ_lnP_Dxxib-4" value="&lt;blockquote style=&quot;margin: 0 0 0 40px; border: none; padding: 0px;&quot;&gt;&lt;/blockquote&gt;&lt;font style=&quot;font-size: 13px;&quot;&gt;&lt;span style=&quot;background-color: initial;&quot;&gt;&lt;b style=&quot;&quot;&gt;&amp;nbsp; _id&lt;/b&gt;:&lt;/span&gt;&lt;span style=&quot;background-color: initial;&quot;&gt;&lt;span style=&quot;&quot;&gt;&amp;nbsp;&amp;nbsp;&amp;nbsp;&amp;nbsp;&lt;/span&gt;&lt;/span&gt;&lt;span style=&quot;background-color: initial;&quot;&gt;&lt;span style=&quot;&quot;&gt;&amp;nbsp;&amp;nbsp;&amp;nbsp;&amp;nbsp;&lt;span style=&quot;white-space: pre;&quot;&gt;&#x9;&lt;/span&gt;&lt;/span&gt;&lt;/span&gt;&lt;span style=&quot;background-color: initial;&quot;&gt;ObjectId{ }&lt;/span&gt;&lt;br&gt;&lt;/font&gt;&lt;blockquote style=&quot;margin: 0px 0px 0px 40px; border: none; padding: 0px; font-size: 13px;&quot;&gt;&lt;/blockquote&gt;&lt;font style=&quot;font-size: 13px;&quot;&gt;&lt;span style=&quot;background-color: initial;&quot;&gt;&lt;b&gt;&amp;nbsp; nombre&lt;/b&gt;:&lt;/span&gt;&lt;span style=&quot;background-color: initial;&quot;&gt;&lt;span style=&quot;&quot;&gt;&amp;nbsp;&amp;nbsp;&amp;nbsp;&amp;nbsp;&lt;span style=&quot;white-space: pre;&quot;&gt;&#x9;&lt;/span&gt;&lt;/span&gt;&lt;/span&gt;&lt;span style=&quot;background-color: initial;&quot;&gt;string&lt;/span&gt;&lt;br&gt;&lt;/font&gt;&lt;blockquote style=&quot;margin: 0px 0px 0px 40px; border: none; padding: 0px; font-size: 13px;&quot;&gt;&lt;/blockquote&gt;&lt;font style=&quot;font-size: 13px;&quot;&gt;&lt;span style=&quot;background-color: initial;&quot;&gt;&lt;b&gt;&amp;nbsp; direccion&lt;/b&gt;:&lt;/span&gt;&lt;span style=&quot;background-color: initial;&quot;&gt;&lt;span style=&quot;&quot;&gt;&amp;nbsp;&amp;nbsp;&amp;nbsp;&amp;nbsp;&lt;span style=&quot;white-space: pre;&quot;&gt;&#x9;&lt;/span&gt;&lt;/span&gt;&lt;/span&gt;&lt;span style=&quot;background-color: initial;&quot;&gt;Object {&lt;/span&gt;&lt;br&gt;&lt;/font&gt;&lt;blockquote style=&quot;margin: 0px 0px 0px 40px; border: none; padding: 0px; font-size: 13px;&quot;&gt;&lt;/blockquote&gt;&lt;font style=&quot;font-size: 13px;&quot;&gt;&lt;span style=&quot;background-color: initial;&quot;&gt;&lt;span style=&quot;&quot;&gt;&amp;nbsp;&amp;nbsp;&amp;nbsp;&amp;nbsp;&lt;/span&gt;&lt;span style=&quot;&quot;&gt;&amp;nbsp;&amp;nbsp;&amp;nbsp;&amp;nbsp;&lt;/span&gt;&lt;span style=&quot;&quot;&gt;&lt;span style=&quot;&quot;&gt;&amp;nbsp;&amp;nbsp;&amp;nbsp;&amp;nbsp;&lt;/span&gt;&lt;span style=&quot;&quot;&gt;&lt;span style=&quot;&quot;&gt;&amp;nbsp;&amp;nbsp;&amp;nbsp;&amp;nbsp;&lt;span style=&quot;white-space: pre;&quot;&gt;&#x9;&lt;/span&gt;&lt;span style=&quot;white-space: pre;&quot;&gt;&#x9;&lt;/span&gt;&lt;/span&gt;&lt;/span&gt;&lt;/span&gt;&lt;/span&gt;&lt;span style=&quot;background-color: initial;&quot;&gt;calle: string&lt;/span&gt;&lt;br&gt;&lt;/font&gt;&lt;blockquote style=&quot;margin: 0px 0px 0px 40px; border: none; padding: 0px; font-size: 13px;&quot;&gt;&lt;/blockquote&gt;&lt;font style=&quot;font-size: 13px;&quot;&gt;&lt;span style=&quot;background-color: initial;&quot;&gt;&lt;span style=&quot;&quot;&gt;&amp;nbsp;&amp;nbsp;&amp;nbsp;&amp;nbsp;&lt;/span&gt;&lt;span style=&quot;&quot;&gt;&lt;span style=&quot;&quot;&gt;&amp;nbsp;&amp;nbsp;&amp;nbsp;&amp;nbsp;&lt;/span&gt;&lt;span style=&quot;&quot;&gt;&amp;nbsp;&amp;nbsp;&amp;nbsp;&amp;nbsp;&lt;/span&gt;&lt;span style=&quot;&quot;&gt;&lt;span style=&quot;&quot;&gt;&amp;nbsp;&amp;nbsp;&amp;nbsp;&amp;nbsp;&lt;span style=&quot;white-space: pre;&quot;&gt;&#x9;&lt;/span&gt;&lt;span style=&quot;white-space: pre;&quot;&gt;&#x9;&lt;/span&gt;&lt;/span&gt;&lt;/span&gt;&lt;/span&gt;&lt;/span&gt;&lt;span style=&quot;background-color: initial;&quot;&gt;numero: number&lt;/span&gt;&lt;/font&gt;&lt;font style=&quot;font-size: 13px;&quot;&gt;&lt;br&gt;&lt;/font&gt;&lt;blockquote style=&quot;margin: 0px 0px 0px 40px; border: none; padding: 0px; font-size: 13px;&quot;&gt;&lt;/blockquote&gt;&lt;font style=&quot;font-size: 13px;&quot;&gt;&lt;span style=&quot;background-color: initial;&quot;&gt;&lt;span style=&quot;&quot;&gt;&amp;nbsp;&amp;nbsp;&amp;nbsp;&amp;nbsp;&lt;/span&gt;&lt;/span&gt;&lt;span style=&quot;background-color: initial;&quot;&gt;&lt;span style=&quot;&quot;&gt;&amp;nbsp;&amp;nbsp;&amp;nbsp;&amp;nbsp;&lt;/span&gt;&lt;span style=&quot;&quot;&gt;&lt;span style=&quot;&quot;&gt;&amp;nbsp;&amp;nbsp;&amp;nbsp;&amp;nbsp;&lt;span style=&quot;white-space: pre;&quot;&gt;&#x9;&lt;/span&gt;&lt;span style=&quot;white-space: pre;&quot;&gt;&#x9;&lt;/span&gt;&lt;/span&gt;&lt;/span&gt;&lt;/span&gt;&lt;span style=&quot;background-color: initial;&quot;&gt;}&lt;/span&gt;&lt;br&gt;&lt;/font&gt;&lt;blockquote style=&quot;margin: 0px 0px 0px 40px; border: none; padding: 0px; font-size: 13px;&quot;&gt;&lt;/blockquote&gt;&lt;font style=&quot;font-size: 13px;&quot;&gt;&lt;font style=&quot;border-color: var(--border-color);&quot;&gt;&lt;b style=&quot;border-color: var(--border-color);&quot;&gt;&lt;font style=&quot;border-color: var(--border-color); font-weight: 400;&quot;&gt;&lt;b style=&quot;border-color: var(--border-color);&quot;&gt;&amp;nbsp; localidad&lt;/b&gt;:&lt;span style=&quot;border-color: var(--border-color); background-color: initial;&quot;&gt;&lt;span style=&quot;white-space: pre;&quot;&gt;&amp;nbsp;&amp;nbsp;&amp;nbsp;&amp;nbsp;&lt;span style=&quot;white-space: pre;&quot;&gt;&#x9;&lt;/span&gt;&lt;/span&gt;&lt;/span&gt;&lt;span style=&quot;border-color: var(--border-color); background-color: initial;&quot;&gt;string&lt;/span&gt;&lt;br style=&quot;border-color: var(--border-color);&quot;&gt;&lt;/font&gt;&lt;blockquote style=&quot;border: none; font-weight: 400; margin: 0px 0px 0px 40px; padding: 0px;&quot;&gt;&lt;/blockquote&gt;&lt;font style=&quot;border-color: var(--border-color); font-weight: 400;&quot;&gt;&lt;/font&gt;&amp;nbsp; c.p.&lt;/b&gt;:&lt;span style=&quot;border-color: var(--border-color); background-color: initial;&quot;&gt;&lt;span style=&quot;&quot;&gt;&amp;nbsp;&amp;nbsp;&amp;nbsp;&amp;nbsp;&lt;span style=&quot;white-space: pre;&quot;&gt;&#x9;&lt;/span&gt;&lt;span style=&quot;white-space: pre;&quot;&gt;&#x9;&lt;/span&gt;&lt;/span&gt;&lt;/span&gt;&lt;span style=&quot;border-color: var(--border-color); background-color: initial;&quot;&gt;string&lt;/span&gt;&lt;br style=&quot;border-color: var(--border-color);&quot;&gt;&lt;/font&gt;&lt;blockquote style=&quot;border: none; margin: 0px 0px 0px 40px; padding: 0px;&quot;&gt;&lt;/blockquote&gt;&lt;font style=&quot;border-color: var(--border-color);&quot;&gt;&lt;/font&gt;&lt;span style=&quot;background-color: initial;&quot;&gt;&lt;b&gt;&amp;nbsp; provincia&lt;/b&gt;:&lt;/span&gt;&lt;span style=&quot;background-color: initial;&quot;&gt;&lt;span style=&quot;&quot;&gt;&amp;nbsp;&amp;nbsp;&amp;nbsp;&amp;nbsp;&lt;/span&gt;&lt;/span&gt;&lt;span style=&quot;background-color: initial;&quot;&gt;&lt;span style=&quot;&quot;&gt;&amp;nbsp;&lt;/span&gt;&lt;/span&gt;&lt;span style=&quot;background-color: initial;&quot;&gt;string&lt;/span&gt;&lt;br&gt;&lt;font style=&quot;font-size: 13px;&quot;&gt;&lt;b style=&quot;&quot;&gt;&amp;nbsp; telefono&lt;/b&gt;:&lt;span style=&quot;&quot;&gt;&lt;span style=&quot;&quot;&gt;&amp;nbsp;&amp;nbsp;&amp;nbsp;&amp;nbsp;&lt;/span&gt;&lt;/span&gt;&lt;span style=&quot;&quot;&gt;&lt;span style=&quot;&quot;&gt;&amp;nbsp;&amp;nbsp;&amp;nbsp;&lt;/span&gt;&lt;/span&gt;number&lt;/font&gt;&lt;/font&gt;" style="html=1;strokeColor=none;resizeWidth=1;resizeHeight=1;fillColor=none;part=1;connectable=0;allowArrows=0;deletable=0;whiteSpace=wrap;align=left;" parent="IGvtpsk_iJ_lnP_Dxxib-3" vertex="1">
          <mxGeometry width="348.75" height="196.42857142857142" relative="1" as="geometry">
            <mxPoint y="30" as="offset" />
          </mxGeometry>
        </mxCell>
        <mxCell id="IGvtpsk_iJ_lnP_Dxxib-8" value="&lt;font style=&quot;font-size: 15px;&quot;&gt;col_clientes&lt;/font&gt;" style="shape=folder;fontStyle=1;tabWidth=160;tabHeight=30;tabPosition=left;html=1;boundedLbl=1;labelInHeader=1;container=1;collapsible=0;whiteSpace=wrap;fillColor=#ffcd28;strokeColor=#000000;gradientColor=#ffa500;" parent="1" vertex="1">
          <mxGeometry x="50" y="20" width="250" height="290" as="geometry" />
        </mxCell>
        <mxCell id="IGvtpsk_iJ_lnP_Dxxib-9" value="&lt;blockquote style=&quot;margin: 0 0 0 40px; border: none; padding: 0px;&quot;&gt;&lt;/blockquote&gt;&lt;font style=&quot;font-size: 13px;&quot;&gt;&lt;span style=&quot;background-color: initial;&quot;&gt;&lt;b style=&quot;&quot;&gt;&amp;nbsp; _id&lt;/b&gt;:&lt;/span&gt;&lt;span style=&quot;background-color: initial; white-space: pre;&quot;&gt;&#x9;&lt;/span&gt;&lt;span style=&quot;background-color: initial; white-space: pre;&quot;&gt;&#x9;&lt;/span&gt;&lt;span style=&quot;background-color: initial;&quot;&gt;ObjectId{ }&lt;br&gt;&lt;/span&gt;&lt;b&gt;&amp;nbsp; nif&lt;/b&gt;:&lt;span style=&quot;white-space: pre;&quot;&gt;&#x9;&lt;/span&gt;&lt;span style=&quot;white-space: pre;&quot;&gt;&#x9;&lt;/span&gt;&lt;span style=&quot;white-space: pre;&quot;&gt;&#x9;&lt;/span&gt;string&lt;br&gt;&lt;/font&gt;&lt;blockquote style=&quot;margin: 0px 0px 0px 40px; border: none; padding: 0px; font-size: 13px;&quot;&gt;&lt;/blockquote&gt;&lt;font style=&quot;font-size: 13px;&quot;&gt;&lt;span style=&quot;background-color: initial;&quot;&gt;&lt;b&gt;&amp;nbsp; nombre&lt;/b&gt;:&lt;/span&gt;&lt;span style=&quot;background-color: initial; white-space: pre;&quot;&gt;&#x9;&lt;/span&gt;&lt;span style=&quot;background-color: initial;&quot;&gt;string&lt;br&gt;&lt;/span&gt;&lt;b&gt;&amp;nbsp; apellido1&lt;/b&gt;:&lt;span style=&quot;white-space: pre;&quot;&gt;&#x9;&lt;/span&gt;string&lt;br&gt;&lt;b&gt;&amp;nbsp; apellido2&lt;/b&gt;:&lt;span style=&quot;white-space: pre;&quot;&gt;&#x9;&lt;/span&gt;string&lt;br&gt;&lt;/font&gt;&lt;blockquote style=&quot;margin: 0px 0px 0px 40px; border: none; padding: 0px; font-size: 13px;&quot;&gt;&lt;/blockquote&gt;&lt;font style=&quot;font-size: 13px;&quot;&gt;&lt;span style=&quot;background-color: initial;&quot;&gt;&lt;b&gt;&amp;nbsp; direccion&lt;/b&gt;:&lt;/span&gt;&lt;span style=&quot;background-color: initial; white-space: pre;&quot;&gt;&#x9;&lt;/span&gt;&lt;span style=&quot;background-color: initial;&quot;&gt;Object {&lt;/span&gt;&lt;br&gt;&lt;/font&gt;&lt;blockquote style=&quot;margin: 0px 0px 0px 40px; border: none; padding: 0px; font-size: 13px;&quot;&gt;&lt;/blockquote&gt;&lt;font style=&quot;font-size: 13px;&quot;&gt;&lt;span style=&quot;background-color: initial; white-space: pre;&quot;&gt;&#x9;&#x9;&lt;span style=&quot;white-space: pre;&quot;&gt;&#x9;&lt;span style=&quot;white-space: pre;&quot;&gt;&#x9;&lt;/span&gt;&lt;/span&gt;&lt;/span&gt;&lt;span style=&quot;background-color: initial;&quot;&gt;calle: string&lt;/span&gt;&lt;br&gt;&lt;/font&gt;&lt;blockquote style=&quot;margin: 0px 0px 0px 40px; border: none; padding: 0px; font-size: 13px;&quot;&gt;&lt;/blockquote&gt;&lt;font style=&quot;font-size: 13px;&quot;&gt;&lt;span style=&quot;background-color: initial; white-space: pre;&quot;&gt;&#x9;&lt;span style=&quot;white-space: pre;&quot;&gt;&#x9;&#x9;&lt;span style=&quot;white-space: pre;&quot;&gt;&#x9;&lt;/span&gt;&lt;/span&gt;&lt;/span&gt;&lt;span style=&quot;background-color: initial;&quot;&gt;numero: number&lt;/span&gt;&lt;br&gt;&lt;/font&gt;&lt;blockquote style=&quot;margin: 0px 0px 0px 40px; border: none; padding: 0px; font-size: 13px;&quot;&gt;&lt;/blockquote&gt;&lt;font style=&quot;font-size: 13px;&quot;&gt;&lt;span style=&quot;background-color: initial; white-space: pre;&quot;&gt;&#x9;&lt;span style=&quot;white-space: pre;&quot;&gt;&#x9;&#x9;&lt;span style=&quot;white-space: pre;&quot;&gt;&#x9;&lt;/span&gt;&lt;/span&gt;&lt;/span&gt;&lt;span style=&quot;background-color: initial;&quot;&gt;piso: string&lt;/span&gt;&lt;br&gt;&lt;/font&gt;&lt;blockquote style=&quot;margin: 0px 0px 0px 40px; border: none; padding: 0px; font-size: 13px;&quot;&gt;&lt;/blockquote&gt;&lt;font style=&quot;font-size: 13px;&quot;&gt;&lt;span style=&quot;background-color: initial; white-space: pre;&quot;&gt;&#x9;&lt;span style=&quot;white-space: pre;&quot;&gt;&#x9;&#x9;&lt;span style=&quot;white-space: pre;&quot;&gt;&#x9;&lt;/span&gt;&lt;/span&gt;&lt;/span&gt;&lt;span style=&quot;background-color: initial;&quot;&gt;puerta: string&lt;/span&gt;&lt;br&gt;&lt;/font&gt;&lt;blockquote style=&quot;margin: 0px 0px 0px 40px; border: none; padding: 0px; font-size: 13px;&quot;&gt;&lt;/blockquote&gt;&lt;font style=&quot;font-size: 13px;&quot;&gt;&lt;span style=&quot;background-color: initial; white-space: pre;&quot;&gt;&#x9;&lt;span style=&quot;white-space: pre;&quot;&gt;&#x9;&#x9;&lt;span style=&quot;white-space: pre;&quot;&gt;&#x9;&lt;/span&gt;&lt;/span&gt;&lt;/span&gt;&lt;span style=&quot;background-color: initial;&quot;&gt;ciudad: string&lt;/span&gt;&lt;br&gt;&lt;/font&gt;&lt;blockquote style=&quot;margin: 0px 0px 0px 40px; border: none; padding: 0px; font-size: 13px;&quot;&gt;&lt;/blockquote&gt;&lt;font style=&quot;font-size: 13px;&quot;&gt;&lt;span style=&quot;background-color: initial; white-space: pre;&quot;&gt;&#x9;&lt;span style=&quot;white-space: pre;&quot;&gt;&#x9;&#x9;&lt;span style=&quot;white-space: pre;&quot;&gt;&#x9;&lt;/span&gt;&lt;/span&gt;&lt;/span&gt;&lt;span style=&quot;background-color: initial;&quot;&gt;codigo_postal: string&lt;/span&gt;&lt;br&gt;&lt;/font&gt;&lt;blockquote style=&quot;margin: 0px 0px 0px 40px; border: none; padding: 0px; font-size: 13px;&quot;&gt;&lt;/blockquote&gt;&lt;font style=&quot;font-size: 13px;&quot;&gt;&lt;span style=&quot;background-color: initial; white-space: pre;&quot;&gt;&#x9;&lt;span style=&quot;white-space: pre;&quot;&gt;&#x9;&#x9;&lt;span style=&quot;white-space: pre;&quot;&gt;&#x9;&lt;/span&gt;&lt;/span&gt;&lt;/span&gt;&lt;span style=&quot;background-color: initial;&quot;&gt;pais:string&lt;/span&gt;&lt;br&gt;&lt;/font&gt;&lt;blockquote style=&quot;margin: 0px 0px 0px 40px; border: none; padding: 0px; font-size: 13px;&quot;&gt;&lt;/blockquote&gt;&lt;font style=&quot;font-size: 13px;&quot;&gt;&lt;span style=&quot;background-color: initial; white-space: pre;&quot;&gt;&#x9;&lt;/span&gt;&lt;span style=&quot;background-color: initial; white-space: pre;&quot;&gt;&#x9;&lt;span style=&quot;white-space: pre;&quot;&gt;&#x9;&lt;/span&gt;&lt;/span&gt;&lt;span style=&quot;background-color: initial;&quot;&gt;}&lt;/span&gt;&lt;br&gt;&lt;/font&gt;&lt;blockquote style=&quot;margin: 0px 0px 0px 40px; border: none; padding: 0px; font-size: 13px;&quot;&gt;&lt;/blockquote&gt;&lt;font style=&quot;font-size: 13px;&quot;&gt;&lt;span style=&quot;background-color: initial;&quot;&gt;&lt;b&gt;&amp;nbsp; telefono&lt;/b&gt;:&lt;/span&gt;&lt;span style=&quot;background-color: initial; white-space: pre;&quot;&gt;&#x9;&lt;/span&gt;&lt;span style=&quot;background-color: initial;&quot;&gt;number&lt;/span&gt;&lt;/font&gt;" style="html=1;strokeColor=none;resizeWidth=1;resizeHeight=1;fillColor=none;part=1;connectable=0;allowArrows=0;deletable=0;whiteSpace=wrap;align=left;" parent="IGvtpsk_iJ_lnP_Dxxib-8" vertex="1">
          <mxGeometry width="281.25" height="258.9285714285714" relative="1" as="geometry">
            <mxPoint y="30" as="offset" />
          </mxGeometry>
        </mxCell>
        <mxCell id="IGvtpsk_iJ_lnP_Dxxib-12" value="&lt;font style=&quot;font-size: 15px;&quot;&gt;col_empleados&lt;/font&gt;" style="shape=folder;fontStyle=1;tabWidth=160;tabHeight=30;tabPosition=left;html=1;boundedLbl=1;labelInHeader=1;container=1;collapsible=0;whiteSpace=wrap;fillColor=#ffcd28;strokeColor=#000000;gradientColor=#ffa500;" parent="1" vertex="1">
          <mxGeometry x="840" y="25" width="310" height="210" as="geometry" />
        </mxCell>
        <mxCell id="IGvtpsk_iJ_lnP_Dxxib-13" value="&lt;blockquote style=&quot;margin: 0 0 0 40px; border: none; padding: 0px;&quot;&gt;&lt;/blockquote&gt;&lt;font style=&quot;font-size: 13px;&quot;&gt;&lt;span style=&quot;background-color: initial;&quot;&gt;&lt;b style=&quot;&quot;&gt;&amp;nbsp; _id&lt;/b&gt;:&lt;span style=&quot;&quot;&gt;&lt;span style=&quot;&quot;&gt;&amp;nbsp;&amp;nbsp;&amp;nbsp;&amp;nbsp;&lt;/span&gt;&lt;/span&gt;&lt;span style=&quot;&quot;&gt;&lt;span style=&quot;&quot;&gt;&amp;nbsp;&amp;nbsp;&amp;nbsp;&amp;nbsp;&lt;span style=&quot;&quot;&gt;&lt;span style=&quot;white-space: pre;&quot;&gt;&amp;nbsp;&amp;nbsp;&amp;nbsp;&amp;nbsp;&lt;/span&gt;&lt;/span&gt;&lt;span style=&quot;&quot;&gt;&lt;span style=&quot;white-space: pre;&quot;&gt;&amp;nbsp;&amp;nbsp;&amp;nbsp;&amp;nbsp;&lt;span style=&quot;white-space: pre;&quot;&gt;&#x9;&lt;/span&gt;&lt;/span&gt;&lt;/span&gt;&lt;/span&gt;&lt;/span&gt;&lt;/span&gt;ObjectId{ }&lt;br&gt;&lt;b style=&quot;border-color: var(--border-color);&quot;&gt;&amp;nbsp; nif&lt;/b&gt;:&lt;span style=&quot;&quot;&gt;&lt;span style=&quot;&quot;&gt;&amp;nbsp;&amp;nbsp;&amp;nbsp;&amp;nbsp;&lt;/span&gt;&lt;/span&gt;&lt;span style=&quot;&quot;&gt;&lt;span style=&quot;&quot;&gt;&amp;nbsp;&amp;nbsp;&amp;nbsp;&amp;nbsp;&lt;/span&gt;&lt;/span&gt;&lt;span style=&quot;&quot;&gt;&lt;span style=&quot;&quot;&gt;&amp;nbsp;&amp;nbsp;&amp;nbsp;&amp;nbsp;&lt;span style=&quot;&quot;&gt;&lt;span style=&quot;white-space: pre;&quot;&gt;&amp;nbsp;&amp;nbsp;&amp;nbsp;&amp;nbsp;&lt;/span&gt;&lt;/span&gt;&lt;span style=&quot;&quot;&gt;&lt;span style=&quot;white-space: pre;&quot;&gt;&amp;nbsp;&amp;nbsp;&amp;nbsp;&amp;nbsp;&lt;span style=&quot;white-space: pre;&quot;&gt;&#x9;&lt;/span&gt;&lt;/span&gt;&lt;/span&gt;&lt;/span&gt;&lt;/span&gt;string&lt;span style=&quot;background-color: initial;&quot;&gt;&lt;br&gt;&lt;/span&gt;&lt;/font&gt;&lt;font style=&quot;font-size: 13px;&quot;&gt;&lt;b style=&quot;border-color: var(--border-color);&quot;&gt;&lt;b style=&quot;border-color: var(--border-color);&quot;&gt;&amp;nbsp; nombre&lt;/b&gt;:&lt;span style=&quot;border-color: var(--border-color); font-weight: 400;&quot;&gt;&lt;span style=&quot;&quot;&gt;&amp;nbsp;&amp;nbsp;&amp;nbsp;&amp;nbsp;&lt;span style=&quot;&quot;&gt;&lt;span style=&quot;white-space: pre;&quot;&gt;&amp;nbsp;&amp;nbsp;&amp;nbsp;&amp;nbsp;&lt;/span&gt;&lt;/span&gt;&lt;span style=&quot;&quot;&gt;&lt;span style=&quot;white-space: pre;&quot;&gt;&amp;nbsp;&amp;nbsp;&amp;nbsp;&amp;nbsp;&lt;span style=&quot;white-space: pre;&quot;&gt;&#x9;&lt;/span&gt;&lt;/span&gt;&lt;/span&gt;&lt;/span&gt;&lt;/span&gt;&lt;span style=&quot;font-weight: 400;&quot;&gt;string&lt;/span&gt;&lt;br style=&quot;border-color: var(--border-color); font-weight: 400;&quot;&gt;&amp;nbsp; apellido1&lt;/b&gt;:&lt;span style=&quot;&quot;&gt;&amp;nbsp;&amp;nbsp;&amp;nbsp;&amp;nbsp;&lt;span style=&quot;&quot;&gt;&lt;span style=&quot;white-space: pre;&quot;&gt;&amp;nbsp;&amp;nbsp;&amp;nbsp;&amp;nbsp;&lt;/span&gt;&lt;/span&gt;&lt;span style=&quot;&quot;&gt;&lt;span style=&quot;white-space: pre;&quot;&gt;&amp;nbsp;&amp;nbsp;&amp;nbsp;&amp;nbsp;&lt;span style=&quot;white-space: pre;&quot;&gt;&#x9;&lt;/span&gt;&lt;/span&gt;&lt;/span&gt;&lt;/span&gt;string&lt;br style=&quot;border-color: var(--border-color);&quot;&gt;&lt;span style=&quot;background-color: initial;&quot;&gt;&lt;b&gt;&amp;nbsp; apellido2&lt;/b&gt;:&lt;span style=&quot;&quot;&gt;&lt;span style=&quot;&quot;&gt;&amp;nbsp;&amp;nbsp;&amp;nbsp;&amp;nbsp;&lt;span style=&quot;&quot;&gt;&lt;span style=&quot;white-space: pre;&quot;&gt;&amp;nbsp;&amp;nbsp;&amp;nbsp;&amp;nbsp;&lt;/span&gt;&lt;/span&gt;&lt;span style=&quot;&quot;&gt;&lt;span style=&quot;white-space: pre;&quot;&gt;&amp;nbsp;&amp;nbsp;&amp;nbsp;&amp;nbsp;&lt;span style=&quot;white-space: pre;&quot;&gt;&#x9;&lt;/span&gt;&lt;/span&gt;&lt;/span&gt;&lt;/span&gt;&lt;/span&gt;&lt;/span&gt;&lt;span style=&quot;background-color: initial;&quot;&gt;string&lt;br&gt;&lt;/span&gt;&lt;b&gt;&amp;nbsp; telefono&lt;/b&gt;:&lt;span style=&quot;&quot;&gt;&lt;span style=&quot;&quot;&gt;&amp;nbsp; &amp;nbsp; &lt;span style=&quot;&quot;&gt;&lt;span style=&quot;white-space: pre;&quot;&gt;&amp;nbsp;&amp;nbsp;&amp;nbsp;&amp;nbsp;&lt;/span&gt;&lt;/span&gt;&lt;span style=&quot;&quot;&gt;&lt;span style=&quot;white-space: pre;&quot;&gt;&amp;nbsp;&amp;nbsp;&amp;nbsp;&amp;nbsp;&lt;span style=&quot;white-space: pre;&quot;&gt;&#x9;&lt;/span&gt;&lt;/span&gt;&lt;/span&gt;number&lt;/span&gt;&lt;/span&gt;&lt;br&gt;&lt;b&gt;&amp;nbsp; funcion&lt;/b&gt;:&lt;span style=&quot;&quot;&gt;&lt;span style=&quot;&quot;&gt;&amp;nbsp; &amp;nbsp; &lt;span style=&quot;&quot;&gt;&lt;span style=&quot;white-space: pre;&quot;&gt;&amp;nbsp;&amp;nbsp;&amp;nbsp;&amp;nbsp;&lt;/span&gt;&lt;/span&gt;&lt;span style=&quot;&quot;&gt;&lt;span style=&quot;white-space: pre;&quot;&gt;&amp;nbsp;&amp;nbsp;&amp;nbsp;&amp;nbsp;&lt;span style=&quot;white-space: pre;&quot;&gt;&#x9;&lt;/span&gt;&lt;/span&gt;&lt;/span&gt;enum [&quot;cocinero&quot;, &quot;repartidor&quot;]&lt;/span&gt;&lt;/span&gt;&lt;br&gt;&lt;font style=&quot;border-color: var(--border-color);&quot;&gt;&lt;b style=&quot;border-color: var(--border-color);&quot;&gt;&amp;nbsp; tienda_asignada&lt;/b&gt;:&lt;span style=&quot;&quot;&gt;&amp;nbsp;&lt;/span&gt;ObjectId{ }&lt;br style=&quot;border-color: var(--border-color);&quot;&gt;&lt;/font&gt;&lt;blockquote style=&quot;border: none; margin: 0px 0px 0px 40px; padding: 0px;&quot;&gt;&lt;/blockquote&gt;&lt;font style=&quot;border-color: var(--border-color);&quot;&gt;&lt;/font&gt;&lt;/font&gt;&lt;blockquote style=&quot;margin: 0px 0px 0px 40px; border: none; padding: 0px; font-size: 13px;&quot;&gt;&lt;/blockquote&gt;" style="html=1;strokeColor=none;resizeWidth=1;resizeHeight=1;fillColor=none;part=1;connectable=0;allowArrows=0;deletable=0;whiteSpace=wrap;align=left;" parent="IGvtpsk_iJ_lnP_Dxxib-12" vertex="1">
          <mxGeometry width="310" height="157.50000000000003" relative="1" as="geometry">
            <mxPoint y="30" as="offset" />
          </mxGeometry>
        </mxCell>
        <mxCell id="IGvtpsk_iJ_lnP_Dxxib-16" value="&lt;font style=&quot;font-size: 15px;&quot;&gt;col_productos&lt;/font&gt;" style="shape=folder;fontStyle=1;tabWidth=160;tabHeight=30;tabPosition=left;html=1;boundedLbl=1;labelInHeader=1;container=1;collapsible=0;whiteSpace=wrap;fillColor=#ffcd28;strokeColor=#000000;gradientColor=#ffa500;" parent="1" vertex="1">
          <mxGeometry x="480" y="600" width="370" height="192" as="geometry" />
        </mxCell>
        <mxCell id="IGvtpsk_iJ_lnP_Dxxib-17" value="&lt;blockquote style=&quot;margin: 0 0 0 40px; border: none; padding: 0px;&quot;&gt;&lt;/blockquote&gt;&lt;font style=&quot;font-size: 13px;&quot;&gt;&lt;span style=&quot;background-color: initial;&quot;&gt;&lt;b style=&quot;&quot;&gt;&amp;nbsp; _id&lt;/b&gt;:&amp;nbsp;&amp;nbsp;&amp;nbsp;&amp;nbsp;&amp;nbsp;&amp;nbsp;&amp;nbsp;&amp;nbsp;&amp;nbsp;&amp;nbsp;&amp;nbsp;&amp;nbsp;&amp;nbsp;&amp;nbsp;&amp;nbsp;&amp;nbsp;&amp;nbsp;&amp;nbsp;&amp;nbsp;&amp;nbsp;&lt;span style=&quot;&quot;&gt;&lt;span style=&quot;white-space: pre;&quot;&gt;&amp;nbsp;&amp;nbsp;&amp;nbsp;&amp;nbsp;&lt;/span&gt;&lt;/span&gt;&lt;/span&gt;&lt;span style=&quot;background-color: initial;&quot;&gt;ObjectId{ }&lt;br&gt;&lt;/span&gt;&lt;b style=&quot;&quot;&gt;&amp;nbsp; tipo_producto&lt;/b&gt;:&amp;nbsp;&amp;nbsp;&amp;nbsp;&amp;nbsp;&amp;nbsp;&lt;span style=&quot;&quot;&gt;&lt;span style=&quot;&quot;&gt;enum [&quot;pizza&quot;,&quot;hamburguesa&quot;,&quot;bebida&quot;]&amp;nbsp;&amp;nbsp;&amp;nbsp;&lt;/span&gt;&lt;/span&gt;&lt;br&gt;&lt;/font&gt;&lt;blockquote style=&quot;margin: 0px 0px 0px 40px; border: none; padding: 0px; font-size: 13px;&quot;&gt;&lt;/blockquote&gt;&lt;font style=&quot;font-size: 13px;&quot;&gt;&lt;span style=&quot;background-color: initial;&quot;&gt;&lt;b&gt;&amp;nbsp; nombre&lt;/b&gt;:&lt;span style=&quot;&quot;&gt;&lt;span style=&quot;white-space: pre;&quot;&gt;&amp;nbsp;&amp;nbsp;&amp;nbsp;&amp;nbsp;&lt;/span&gt;&lt;/span&gt;&lt;span style=&quot;&quot;&gt;&lt;span style=&quot;white-space: pre;&quot;&gt;&amp;nbsp;&amp;nbsp;&amp;nbsp;&amp;nbsp;&lt;/span&gt;&lt;/span&gt;&lt;span style=&quot;&quot;&gt;&lt;span style=&quot;white-space: pre;&quot;&gt;&amp;nbsp;&amp;nbsp;&amp;nbsp;&amp;nbsp;&lt;/span&gt;&lt;/span&gt;&lt;span style=&quot;&quot;&gt;&lt;span style=&quot;white-space: pre;&quot;&gt;&amp;nbsp;&amp;nbsp;&amp;nbsp;&amp;nbsp;&lt;/span&gt;&lt;/span&gt;string&lt;/span&gt;&lt;span style=&quot;background-color: initial;&quot;&gt;&lt;br&gt;&lt;/span&gt;&lt;b&gt;&amp;nbsp; descripcion&lt;/b&gt;:&lt;span style=&quot;&quot;&gt;&lt;span style=&quot;white-space: pre;&quot;&gt;&amp;nbsp;&amp;nbsp;&amp;nbsp;&amp;nbsp;&lt;/span&gt;&lt;/span&gt;&lt;span style=&quot;&quot;&gt;&lt;span style=&quot;white-space: pre;&quot;&gt;&amp;nbsp;&amp;nbsp;&amp;nbsp;&amp;nbsp;&lt;/span&gt;&lt;/span&gt;&lt;span style=&quot;&quot;&gt;&lt;span style=&quot;white-space: pre;&quot;&gt;&amp;nbsp;&lt;/span&gt;&lt;/span&gt;string&lt;br&gt;&lt;b&gt;&amp;nbsp; precio&lt;/b&gt;:&lt;span style=&quot;white-space: pre;&quot;&gt;&#x9;&lt;/span&gt;&lt;span style=&quot;white-space: pre;&quot;&gt;&#x9;&lt;/span&gt;&lt;span style=&quot;white-space: pre;&quot;&gt;&#x9;&lt;/span&gt;number&lt;br&gt;&lt;font style=&quot;border-color: var(--border-color); font-size: 13px;&quot;&gt;&lt;b style=&quot;border-color: var(--border-color);&quot;&gt;&amp;nbsp; imagen&lt;/b&gt;:&lt;span style=&quot;white-space: pre;&quot;&gt;&#x9;&lt;/span&gt;&lt;span style=&quot;white-space: pre;&quot;&gt;&#x9;&lt;/span&gt;&lt;span style=&quot;&quot;&gt;s&lt;/span&gt;tring&lt;br style=&quot;border-color: var(--border-color);&quot;&gt;&lt;/font&gt;&lt;blockquote style=&quot;border: none; margin: 0px 0px 0px 40px; padding: 0px;&quot;&gt;&lt;/blockquote&gt;&lt;font style=&quot;border-color: var(--border-color); font-size: 13px;&quot;&gt;&lt;/font&gt;&lt;/font&gt;&lt;blockquote style=&quot;margin: 0px 0px 0px 40px; border: none; padding: 0px; font-size: 13px;&quot;&gt;&lt;/blockquote&gt;&lt;font style=&quot;font-size: 13px;&quot;&gt;&lt;font style=&quot;font-size: 13px;&quot;&gt;&lt;span style=&quot;background-color: initial;&quot;&gt;&lt;b&gt;&amp;nbsp; categoria_pizza&lt;/b&gt;:&lt;span style=&quot;white-space: pre;&quot;&gt;&#x9;&lt;/span&gt;&lt;span style=&quot;&quot;&gt;&lt;span style=&quot;white-space: pre;&quot;&gt;O&lt;/span&gt;&lt;/span&gt;&lt;/span&gt;&lt;/font&gt;bjectId{ }&lt;/font&gt;" style="html=1;strokeColor=none;resizeWidth=1;resizeHeight=1;fillColor=none;part=1;connectable=0;allowArrows=0;deletable=0;whiteSpace=wrap;align=left;" parent="IGvtpsk_iJ_lnP_Dxxib-16" vertex="1">
          <mxGeometry width="370" height="150" relative="1" as="geometry">
            <mxPoint y="30" as="offset" />
          </mxGeometry>
        </mxCell>
        <mxCell id="IGvtpsk_iJ_lnP_Dxxib-18" value="&lt;font style=&quot;font-size: 15px;&quot;&gt;col_pedidos&lt;/font&gt;" style="shape=folder;fontStyle=1;tabWidth=160;tabHeight=30;tabPosition=left;html=1;boundedLbl=1;labelInHeader=1;container=1;collapsible=0;whiteSpace=wrap;fillColor=#ffcd28;strokeColor=#000000;gradientColor=#ffa500;" parent="1" vertex="1">
          <mxGeometry x="480" y="320" width="310" height="240" as="geometry" />
        </mxCell>
        <mxCell id="IGvtpsk_iJ_lnP_Dxxib-19" value="&lt;blockquote style=&quot;margin: 0 0 0 40px; border: none; padding: 0px;&quot;&gt;&lt;/blockquote&gt;&lt;font style=&quot;font-size: 13px;&quot;&gt;&lt;span style=&quot;background-color: initial;&quot;&gt;&lt;b style=&quot;&quot;&gt;&amp;nbsp; _id:&lt;span style=&quot;&quot;&gt;&lt;span style=&quot;&quot;&gt;&amp;nbsp;&amp;nbsp;&amp;nbsp;&amp;nbsp;&lt;/span&gt;&lt;/span&gt;&lt;span style=&quot;&quot;&gt;&lt;span style=&quot;&quot;&gt;&amp;nbsp;&amp;nbsp;&amp;nbsp;&amp;nbsp;&lt;/span&gt;&lt;span style=&quot;&quot;&gt;&lt;span style=&quot;&quot;&gt;&amp;nbsp;&amp;nbsp;&amp;nbsp;&amp;nbsp;&lt;span style=&quot;white-space: pre;&quot;&gt;&#x9;&lt;/span&gt;&lt;span style=&quot;white-space: pre;&quot;&gt;&#x9;&lt;/span&gt;&lt;span style=&quot;white-space: pre;&quot;&gt;&#x9;&lt;/span&gt;&lt;/span&gt;&lt;/span&gt;&lt;/span&gt;&lt;/b&gt;&lt;/span&gt;&lt;span style=&quot;background-color: initial;&quot;&gt;ObjectId{ }&lt;br&gt;&lt;/span&gt;&lt;b&gt;&amp;nbsp; tienda&lt;/b&gt;:&lt;span style=&quot;&quot;&gt;&lt;span style=&quot;&quot;&gt;&amp;nbsp;&amp;nbsp;&amp;nbsp;&amp;nbsp;&lt;/span&gt;&lt;/span&gt;&lt;span style=&quot;&quot;&gt;&lt;span style=&quot;&quot;&gt;&amp;nbsp;&amp;nbsp;&amp;nbsp;&amp;nbsp;&lt;/span&gt;&lt;/span&gt;&lt;span style=&quot;&quot;&gt;&lt;span style=&quot;&quot;&gt;&amp;nbsp; &amp;nbsp;&lt;span style=&quot;white-space: pre;&quot;&gt;&#x9;&lt;/span&gt;&lt;span style=&quot;white-space: pre;&quot;&gt;&#x9;&lt;/span&gt;&lt;/span&gt;&lt;/span&gt;ObjectId{ }&lt;br&gt;&lt;/font&gt;&lt;blockquote style=&quot;margin: 0px 0px 0px 40px; border: none; padding: 0px; font-size: 13px;&quot;&gt;&lt;/blockquote&gt;&lt;font style=&quot;font-size: 13px;&quot;&gt;&lt;span style=&quot;background-color: initial;&quot;&gt;&lt;b&gt;&amp;nbsp; momento_peticion&lt;/b&gt;:&lt;span style=&quot;&quot;&gt;&lt;span style=&quot;&quot;&gt;&amp;nbsp;&amp;nbsp;&lt;span style=&quot;white-space: pre;&quot;&gt;&#x9;&lt;/span&gt;&lt;/span&gt;&lt;/span&gt;date&lt;/span&gt;&lt;span style=&quot;background-color: initial;&quot;&gt;&lt;br&gt;&lt;/span&gt;&lt;b&gt;&amp;nbsp; cliente&lt;/b&gt;:&lt;span style=&quot;&quot;&gt;&lt;span style=&quot;&quot;&gt;&amp;nbsp;&amp;nbsp;&amp;nbsp;&amp;nbsp;&lt;/span&gt;&lt;/span&gt;&lt;span style=&quot;&quot;&gt;&lt;span style=&quot;&quot;&gt;&amp;nbsp;&amp;nbsp;&amp;nbsp;&amp;nbsp;&lt;span style=&quot;white-space: pre;&quot;&gt;&#x9;&lt;/span&gt;&lt;span style=&quot;white-space: pre;&quot;&gt;&#x9;&lt;/span&gt;&lt;span style=&quot;white-space: pre;&quot;&gt;&#x9;&lt;/span&gt;&lt;/span&gt;&lt;/span&gt;ObjectId{ }&lt;br&gt;&lt;b&gt;&amp;nbsp; tipo_entrega&lt;/b&gt;:&lt;span style=&quot;&quot;&gt;&lt;span style=&quot;&quot;&gt;&amp;nbsp;&amp;nbsp;&amp;nbsp;&amp;nbsp;&lt;span style=&quot;white-space: pre;&quot;&gt;&#x9;&lt;/span&gt;&lt;span style=&quot;white-space: pre;&quot;&gt;&#x9;&lt;/span&gt;&lt;/span&gt;&lt;/span&gt;enum [&quot;local&quot;, &quot;domicilio]&lt;br&gt;&lt;font style=&quot;border-color: var(--border-color);&quot;&gt;&lt;b style=&quot;border-color: var(--border-color);&quot;&gt;&amp;nbsp; momento_entrega&lt;/b&gt;:&lt;span style=&quot;&quot;&gt;&lt;span style=&quot;&quot;&gt;&amp;nbsp;&amp;nbsp;&amp;nbsp;&amp;nbsp;&lt;span style=&quot;white-space: pre;&quot;&gt;&#x9;&lt;/span&gt;&lt;/span&gt;&lt;/span&gt;date&lt;br&gt;&lt;/font&gt;&lt;/font&gt;&lt;font style=&quot;font-size: 13px;&quot;&gt;&lt;span style=&quot;border-color: var(--border-color);&quot;&gt;&lt;span style=&quot;border-color: var(--border-color);&quot;&gt;&lt;b style=&quot;font-weight: bold; border-color: var(--border-color);&quot;&gt;&amp;nbsp; empleado_entrega&lt;/b&gt;&lt;b&gt;:&lt;span style=&quot;white-space: pre;&quot;&gt;&#x9;&lt;/span&gt;&lt;/b&gt;ObjectId{ }&lt;br style=&quot;border-color: var(--border-color);&quot;&gt;&lt;b&gt;&amp;nbsp; cant_pizzas&lt;/b&gt;&lt;/span&gt;&lt;b&gt;:&lt;/b&gt;&lt;span style=&quot;font-weight: 400; border-color: var(--border-color);&quot;&gt;&lt;span style=&quot;&quot;&gt;&amp;nbsp;&amp;nbsp;&amp;nbsp;&lt;span style=&quot;white-space: pre;&quot;&gt;&#x9;&lt;span style=&quot;white-space: pre;&quot;&gt;&#x9;&lt;/span&gt;&lt;/span&gt;&lt;/span&gt;&lt;/span&gt;number&lt;br&gt;&amp;nbsp;&amp;nbsp;&lt;b&gt;cant_burguers&lt;/b&gt;&lt;/span&gt;:&amp;nbsp; &amp;nbsp; &lt;span style=&quot;white-space: pre;&quot;&gt;&#x9;&lt;/span&gt;number&lt;br&gt;&lt;b style=&quot;border-color: var(--border-color);&quot;&gt;&amp;nbsp; cant_bebidas&lt;/b&gt;:&amp;nbsp; &amp;nbsp; &lt;span style=&quot;white-space: pre;&quot;&gt;&#x9;&lt;/span&gt;&lt;span style=&quot;white-space: pre;&quot;&gt;&#x9;&lt;/span&gt;number&lt;br&gt;&lt;b style=&quot;border-color: var(--border-color);&quot;&gt;&amp;nbsp; precio_total&lt;/b&gt;:&lt;span style=&quot;&quot;&gt;&amp;nbsp; &amp;nbsp; &lt;span style=&quot;white-space: pre;&quot;&gt;&#x9;&lt;/span&gt;&lt;span style=&quot;white-space: pre;&quot;&gt;&#x9;&lt;/span&gt;number&lt;/span&gt;&lt;span style=&quot;background-color: initial;&quot;&gt;&lt;span style=&quot;&quot;&gt;&lt;span style=&quot;&quot;&gt;&lt;span style=&quot;&quot;&gt;&lt;br&gt;&lt;/span&gt;&lt;/span&gt;&lt;/span&gt;&lt;/span&gt;&lt;/font&gt;" style="html=1;strokeColor=none;resizeWidth=1;resizeHeight=1;fillColor=none;part=1;connectable=0;allowArrows=0;deletable=0;whiteSpace=wrap;align=left;" parent="IGvtpsk_iJ_lnP_Dxxib-18" vertex="1">
          <mxGeometry width="310" height="200" relative="1" as="geometry">
            <mxPoint y="30" as="offset" />
          </mxGeometry>
        </mxCell>
        <mxCell id="iLaFB42t3GOhPTvFD4_W-1" value="&lt;font style=&quot;font-size: 15px;&quot;&gt;col_categorias&lt;/font&gt;" style="shape=folder;fontStyle=1;tabWidth=160;tabHeight=30;tabPosition=left;html=1;boundedLbl=1;labelInHeader=1;container=1;collapsible=0;whiteSpace=wrap;fillColor=#ffcd28;strokeColor=#000000;gradientColor=#ffa500;" vertex="1" parent="1">
          <mxGeometry x="930" y="596" width="170" height="120" as="geometry" />
        </mxCell>
        <mxCell id="iLaFB42t3GOhPTvFD4_W-2" value="&lt;blockquote style=&quot;margin: 0 0 0 40px; border: none; padding: 0px;&quot;&gt;&lt;/blockquote&gt;&lt;font style=&quot;font-size: 13px;&quot;&gt;&lt;span style=&quot;background-color: initial;&quot;&gt;&lt;b style=&quot;&quot;&gt;&amp;nbsp; _id:&lt;span style=&quot;white-space: pre;&quot;&gt;&#x9;&lt;span style=&quot;white-space: pre;&quot;&gt;&#x9;&lt;/span&gt;&lt;/span&gt;&lt;/b&gt;&lt;/span&gt;&lt;span style=&quot;background-color: initial;&quot;&gt;ObjectId{ }&lt;br&gt;&lt;/span&gt;&lt;b&gt;&amp;nbsp; nombre&lt;/b&gt;:&lt;span style=&quot;white-space: pre;&quot;&gt;&#x9;&lt;/span&gt;string&lt;br&gt;&lt;/font&gt;&lt;blockquote style=&quot;margin: 0px 0px 0px 40px; border: none; padding: 0px; font-size: 13px;&quot;&gt;&lt;/blockquote&gt;&lt;font style=&quot;font-size: 13px;&quot;&gt;&lt;span style=&quot;background-color: initial;&quot;&gt;&lt;span style=&quot;&quot;&gt;&lt;span style=&quot;&quot;&gt;&lt;span style=&quot;&quot;&gt;&lt;br&gt;&lt;/span&gt;&lt;/span&gt;&lt;/span&gt;&lt;/span&gt;&lt;/font&gt;" style="html=1;strokeColor=none;resizeWidth=1;resizeHeight=1;fillColor=none;part=1;connectable=0;allowArrows=0;deletable=0;whiteSpace=wrap;align=left;" vertex="1" parent="iLaFB42t3GOhPTvFD4_W-1">
          <mxGeometry width="153" height="80" relative="1" as="geometry">
            <mxPoint y="30" as="offset" />
          </mxGeometry>
        </mxCell>
        <mxCell id="iLaFB42t3GOhPTvFD4_W-3" value="&lt;font style=&quot;font-size: 15px;&quot;&gt;col_detalles&lt;/font&gt;" style="shape=folder;fontStyle=1;tabWidth=160;tabHeight=30;tabPosition=left;html=1;boundedLbl=1;labelInHeader=1;container=1;collapsible=0;whiteSpace=wrap;fillColor=#ffcd28;strokeColor=#000000;gradientColor=#ffa500;" vertex="1" parent="1">
          <mxGeometry x="50" y="420" width="320" height="210" as="geometry" />
        </mxCell>
        <mxCell id="iLaFB42t3GOhPTvFD4_W-4" value="&lt;blockquote style=&quot;margin: 0 0 0 40px; border: none; padding: 0px;&quot;&gt;&lt;/blockquote&gt;&lt;font style=&quot;font-size: 13px;&quot;&gt;&lt;span style=&quot;background-color: initial;&quot;&gt;&lt;b style=&quot;&quot;&gt;&amp;nbsp; _id:&lt;span style=&quot;&quot;&gt;&lt;span style=&quot;&quot;&gt;&amp;nbsp;&amp;nbsp;&amp;nbsp;&amp;nbsp;&lt;/span&gt;&lt;span style=&quot;&quot;&gt;&lt;span style=&quot;&quot;&gt;&amp;nbsp;&amp;nbsp;&amp;nbsp;&amp;nbsp;&lt;span style=&quot;white-space: pre;&quot;&gt;&#x9;&lt;/span&gt;&lt;span style=&quot;white-space: pre;&quot;&gt;&#x9;&lt;span style=&quot;white-space: pre;&quot;&gt;&#x9;&lt;/span&gt;&lt;/span&gt;&lt;/span&gt;&lt;/span&gt;&lt;/span&gt;&lt;/b&gt;&lt;/span&gt;&lt;span style=&quot;background-color: initial;&quot;&gt;ObjectId{ }&lt;br&gt;&lt;/span&gt;&lt;/font&gt;&lt;font style=&quot;font-size: 13px;&quot;&gt;&lt;font style=&quot;border-color: var(--border-color);&quot;&gt;&lt;b style=&quot;border-color: var(--border-color);&quot;&gt;&lt;font style=&quot;border-color: var(--border-color); font-weight: 400;&quot;&gt;&lt;b style=&quot;border-color: var(--border-color);&quot;&gt;&lt;font style=&quot;border-color: var(--border-color); font-weight: 400;&quot;&gt;&lt;b style=&quot;border-color: var(--border-color);&quot;&gt;&lt;font style=&quot;border-color: var(--border-color); font-weight: 400;&quot;&gt;&lt;b style=&quot;border-color: var(--border-color);&quot;&gt;&amp;nbsp; numero_pedido&lt;/b&gt;:&lt;span style=&quot;&quot;&gt;&amp;nbsp; &lt;span style=&quot;white-space: pre;&quot;&gt;&#x9;&lt;/span&gt;&lt;/span&gt;ObjectId{ }&lt;br style=&quot;border-color: var(--border-color);&quot;&gt;&lt;/font&gt;&lt;blockquote style=&quot;border: none; font-weight: 400; margin: 0px 0px 0px 40px; padding: 0px;&quot;&gt;&lt;/blockquote&gt;&lt;font style=&quot;border-color: var(--border-color); font-weight: 400;&quot;&gt;&lt;/font&gt;&amp;nbsp; productos_incluidos&lt;/b&gt;:&lt;span style=&quot;white-space: pre;&quot;&gt;&#x9;&lt;/span&gt;array[&lt;br&gt;&lt;span style=&quot;white-space: pre;&quot;&gt;&#x9;&lt;/span&gt;&lt;span style=&quot;white-space: pre;&quot;&gt;&#x9;&lt;/span&gt;&lt;span style=&quot;white-space: pre;&quot;&gt;&#x9;&lt;/span&gt;&lt;span style=&quot;white-space: pre;&quot;&gt;&#x9;&lt;span style=&quot;white-space: pre;&quot;&gt;&#x9;&lt;/span&gt;&lt;span style=&quot;white-space: pre;&quot;&gt;&#x9;&lt;/span&gt;&lt;/span&gt;items Object{&lt;br&gt;&lt;span style=&quot;white-space: pre;&quot;&gt;&#x9;&lt;/span&gt;&lt;span style=&quot;white-space: pre;&quot;&gt;&#x9;&lt;/span&gt;&lt;span style=&quot;white-space: pre;&quot;&gt;&#x9;&lt;/span&gt;&lt;span style=&quot;white-space: pre;&quot;&gt;&#x9;&lt;/span&gt;&lt;span style=&quot;white-space: pre;&quot;&gt;&#x9;&lt;span style=&quot;white-space: pre;&quot;&gt;&#x9;&lt;/span&gt;&lt;span style=&quot;white-space: pre;&quot;&gt;&#x9;&lt;/span&gt;&lt;/span&gt;nombre:&lt;span style=&quot;white-space: pre;&quot;&gt;&#x9;&lt;/span&gt;string&lt;br&gt;&lt;span style=&quot;white-space: pre;&quot;&gt;&#x9;&lt;/span&gt;&lt;span style=&quot;white-space: pre;&quot;&gt;&#x9;&lt;/span&gt;&lt;span style=&quot;white-space: pre;&quot;&gt;&#x9;&lt;/span&gt;&lt;span style=&quot;white-space: pre;&quot;&gt;&#x9;&lt;/span&gt;&lt;span style=&quot;white-space: pre;&quot;&gt;&#x9;&lt;span style=&quot;white-space: pre;&quot;&gt;&#x9;&lt;/span&gt;&lt;span style=&quot;white-space: pre;&quot;&gt;&#x9;&lt;/span&gt;&lt;/span&gt;precio:&lt;span style=&quot;white-space: pre;&quot;&gt;&#x9;&lt;/span&gt;number&lt;br&gt;&lt;span style=&quot;white-space: pre;&quot;&gt;&#x9;&lt;/span&gt;&lt;span style=&quot;white-space: pre;&quot;&gt;&#x9;&lt;/span&gt;&lt;span style=&quot;white-space: pre;&quot;&gt;&#x9;&lt;/span&gt;&lt;span style=&quot;white-space: pre;&quot;&gt;&#x9;&lt;/span&gt;&lt;span style=&quot;white-space: pre;&quot;&gt;&#x9;&lt;span style=&quot;white-space: pre;&quot;&gt;&#x9;&lt;/span&gt;&lt;span style=&quot;white-space: pre;&quot;&gt;&#x9;&lt;/span&gt;&lt;/span&gt;cantidad:&lt;span style=&quot;white-space: pre;&quot;&gt;&#x9;&lt;/span&gt;number&lt;br&gt;&lt;span style=&quot;white-space: pre;&quot;&gt;&#x9;&lt;/span&gt;&lt;span style=&quot;white-space: pre;&quot;&gt;&#x9;&lt;/span&gt;&lt;span style=&quot;white-space: pre;&quot;&gt;&#x9;&lt;/span&gt;&lt;span style=&quot;white-space: pre;&quot;&gt;&#x9;&lt;/span&gt;&lt;span style=&quot;white-space: pre;&quot;&gt;&#x9;&lt;/span&gt;&lt;span style=&quot;white-space: pre;&quot;&gt;&#x9;&lt;/span&gt;}&amp;nbsp;&lt;br&gt;&lt;span style=&quot;white-space: pre;&quot;&gt;&#x9;&lt;/span&gt;&lt;span style=&quot;white-space: pre;&quot;&gt;&#x9;&lt;/span&gt;&lt;span style=&quot;white-space: pre;&quot;&gt;&#x9;&lt;/span&gt;&lt;span style=&quot;white-space: pre;&quot;&gt;&#x9;&lt;/span&gt;&lt;span style=&quot;white-space: pre;&quot;&gt;&#x9;&lt;/span&gt;]&lt;br style=&quot;border-color: var(--border-color);&quot;&gt;&lt;/font&gt;&lt;blockquote style=&quot;border: none; font-weight: 400; margin: 0px 0px 0px 40px; padding: 0px;&quot;&gt;&lt;/blockquote&gt;&lt;font style=&quot;border-color: var(--border-color); font-weight: 400;&quot;&gt;&lt;/font&gt;&amp;nbsp;&lt;/b&gt;&lt;/font&gt;&lt;/b&gt;&lt;br style=&quot;border-color: var(--border-color);&quot;&gt;&lt;/font&gt;&lt;blockquote style=&quot;border: none; margin: 0px 0px 0px 40px; padding: 0px;&quot;&gt;&lt;/blockquote&gt;&lt;font style=&quot;border-color: var(--border-color);&quot;&gt;&lt;/font&gt;&lt;/font&gt;" style="html=1;strokeColor=none;resizeWidth=1;resizeHeight=1;fillColor=none;part=1;connectable=0;allowArrows=0;deletable=0;whiteSpace=wrap;align=left;" vertex="1" parent="iLaFB42t3GOhPTvFD4_W-3">
          <mxGeometry width="320" height="186.66666666666666" relative="1" as="geometry">
            <mxPoint y="30" as="offset" />
          </mxGeometry>
        </mxCell>
        <mxCell id="iLaFB42t3GOhPTvFD4_W-8" value="" style="endArrow=none;html=1;rounded=0;exitX=0;exitY=0;exitDx=250.00000000000003;exitDy=290;exitPerimeter=0;edgeStyle=orthogonalEdgeStyle;entryX=0;entryY=0.375;entryDx=0;entryDy=0;entryPerimeter=0;endFill=0;" edge="1" parent="1" source="IGvtpsk_iJ_lnP_Dxxib-8" target="IGvtpsk_iJ_lnP_Dxxib-18">
          <mxGeometry width="50" height="50" relative="1" as="geometry">
            <mxPoint x="280" y="380" as="sourcePoint" />
            <mxPoint x="390" y="410" as="targetPoint" />
            <Array as="points">
              <mxPoint x="300" y="410" />
            </Array>
          </mxGeometry>
        </mxCell>
        <mxCell id="iLaFB42t3GOhPTvFD4_W-9" value="" style="endArrow=none;html=1;rounded=0;exitX=0;exitY=0;exitDx=250.00000000000003;exitDy=290;exitPerimeter=0;edgeStyle=orthogonalEdgeStyle;endFill=0;" edge="1" parent="1">
          <mxGeometry width="50" height="50" relative="1" as="geometry">
            <mxPoint x="420" y="240" as="sourcePoint" />
            <mxPoint x="480" y="380" as="targetPoint" />
            <Array as="points">
              <mxPoint x="420" y="380" />
              <mxPoint x="478" y="380" />
            </Array>
          </mxGeometry>
        </mxCell>
        <mxCell id="iLaFB42t3GOhPTvFD4_W-10" value="" style="endArrow=none;html=1;rounded=0;exitX=0;exitY=0;exitDx=0;exitDy=210;exitPerimeter=0;edgeStyle=elbowEdgeStyle;entryX=0;entryY=0;entryDx=310;entryDy=82.5;entryPerimeter=0;endFill=0;" edge="1" parent="1" source="IGvtpsk_iJ_lnP_Dxxib-12" target="IGvtpsk_iJ_lnP_Dxxib-18">
          <mxGeometry width="50" height="50" relative="1" as="geometry">
            <mxPoint x="890" y="340" as="sourcePoint" />
            <mxPoint x="840" y="460" as="targetPoint" />
            <Array as="points">
              <mxPoint x="840" y="320" />
            </Array>
          </mxGeometry>
        </mxCell>
        <mxCell id="iLaFB42t3GOhPTvFD4_W-11" value="" style="endArrow=none;html=1;rounded=0;exitX=0;exitY=0;exitDx=0;exitDy=75;exitPerimeter=0;entryX=0;entryY=0;entryDx=370;entryDy=70.5;entryPerimeter=0;endFill=0;" edge="1" parent="1" source="iLaFB42t3GOhPTvFD4_W-1" target="IGvtpsk_iJ_lnP_Dxxib-16">
          <mxGeometry width="50" height="50" relative="1" as="geometry">
            <mxPoint x="920" y="860" as="sourcePoint" />
            <mxPoint x="970" y="810" as="targetPoint" />
          </mxGeometry>
        </mxCell>
        <mxCell id="iLaFB42t3GOhPTvFD4_W-12" value="" style="endArrow=none;html=1;rounded=0;edgeStyle=elbowEdgeStyle;elbow=vertical;endFill=0;" edge="1" parent="1">
          <mxGeometry width="50" height="50" relative="1" as="geometry">
            <mxPoint x="480" y="680" as="sourcePoint" />
            <mxPoint x="310" y="630" as="targetPoint" />
            <Array as="points">
              <mxPoint x="380" y="680" />
            </Array>
          </mxGeometry>
        </mxCell>
        <mxCell id="iLaFB42t3GOhPTvFD4_W-13" value="" style="endArrow=none;html=1;rounded=0;exitX=0.001;exitY=0.844;exitDx=0;exitDy=0;exitPerimeter=0;entryX=1;entryY=0.488;entryDx=0;entryDy=0;entryPerimeter=0;endFill=0;" edge="1" parent="1" source="IGvtpsk_iJ_lnP_Dxxib-18" target="iLaFB42t3GOhPTvFD4_W-3">
          <mxGeometry width="50" height="50" relative="1" as="geometry">
            <mxPoint x="970" y="450" as="sourcePoint" />
            <mxPoint x="1020" y="400" as="targetPoint" />
          </mxGeometry>
        </mxCell>
        <mxCell id="iLaFB42t3GOhPTvFD4_W-15" value="" style="endArrow=none;html=1;rounded=0;" edge="1" parent="1" source="IGvtpsk_iJ_lnP_Dxxib-3" target="IGvtpsk_iJ_lnP_Dxxib-12">
          <mxGeometry width="50" height="50" relative="1" as="geometry">
            <mxPoint x="310" y="160" as="sourcePoint" />
            <mxPoint x="810" y="130" as="targetPoint" />
          </mxGeometry>
        </mxCell>
      </root>
    </mxGraphModel>
  </diagram>
</mxfile>
